<mxfile host="www.draw.io" modified="2020-02-01T13:04:26.456Z" agent="Mozilla/5.0 (Windows NT 10.0; Win64; x64) AppleWebKit/537.36 (KHTML, like Gecko) Chrome/79.0.3945.117 Safari/537.36" etag="Yd5OlEIdo8OzaLb7BNrz" version="12.6.2" type="github">
  <diagram name="Page-1" id="e7e014a7-5840-1c2e-5031-d8a46d1fe8dd">
    <mxGraphModel dx="1024" dy="485" grid="1" gridSize="10" guides="1" tooltips="1" connect="1" arrows="1" fold="1" page="1" pageScale="1" pageWidth="1169" pageHeight="826" background="#ffffff" math="0" shadow="0">
      <root>
        <mxCell id="0"/>
        <mxCell id="1" parent="0"/>
        <mxCell id="bo6-_9pq4a2fclOm_5sS-16" value="会员" style="swimlane;fontStyle=0;childLayout=stackLayout;horizontal=1;startSize=22;fillColor=none;horizontalStack=0;resizeParent=1;resizeParentMax=0;resizeLast=0;collapsible=1;marginBottom=0;swimlaneFillColor=#ffffff;align=center;fontSize=14;" parent="1" vertex="1">
          <mxGeometry x="60" y="150" width="140" height="100" as="geometry"/>
        </mxCell>
        <mxCell id="bo6-_9pq4a2fclOm_5sS-17" value="表主键id&#xa;client_user_id&#xa;淘宝会员昵称&#xa;宝洁会员id&#xa;created_time" style="text;strokeColor=none;fillColor=none;spacingLeft=4;spacingRight=4;overflow=hidden;rotatable=0;points=[[0,0.5],[1,0.5]];portConstraint=eastwest;fontSize=12;whiteSpace=wrap;" parent="bo6-_9pq4a2fclOm_5sS-16" vertex="1">
          <mxGeometry y="22" width="140" height="78" as="geometry"/>
        </mxCell>
        <mxCell id="bo6-_9pq4a2fclOm_5sS-20" value="问卷" style="swimlane;fontStyle=0;childLayout=stackLayout;horizontal=1;startSize=22;fillColor=none;horizontalStack=0;resizeParent=1;resizeParentMax=0;resizeLast=0;collapsible=1;marginBottom=0;swimlaneFillColor=#ffffff;align=center;fontSize=14;" parent="1" vertex="1">
          <mxGeometry x="310" y="240" width="190" height="160" as="geometry"/>
        </mxCell>
        <mxCell id="bo6-_9pq4a2fclOm_5sS-21" value="表主键id&#xa;client_user_id&#xa;问卷类型type&#xa;create_time&#xa;用户护肤目标&#xa;用户护眼目标&#xa;用户睡眠习惯&#xa;用户睡眠时间&#xa;用户饮食习惯" style="text;strokeColor=none;fillColor=none;spacingLeft=4;spacingRight=4;overflow=hidden;rotatable=0;points=[[0,0.5],[1,0.5]];portConstraint=eastwest;fontSize=12;whiteSpace=wrap;" parent="bo6-_9pq4a2fclOm_5sS-20" vertex="1">
          <mxGeometry y="22" width="190" height="138" as="geometry"/>
        </mxCell>
        <mxCell id="lZ37NlDJfsxyfmmgvfQE-2" value="肌肤测试结果" style="swimlane;fontStyle=0;childLayout=stackLayout;horizontal=1;startSize=22;fillColor=none;horizontalStack=0;resizeParent=1;resizeParentMax=0;resizeLast=0;collapsible=1;marginBottom=0;swimlaneFillColor=#ffffff;align=center;fontSize=14;" vertex="1" parent="1">
          <mxGeometry x="310" y="10" width="190" height="160" as="geometry"/>
        </mxCell>
        <mxCell id="lZ37NlDJfsxyfmmgvfQE-3" value="表主键id&#xa;client_user_id&#xa;胶原蛋白平衡分值&#xa;黑色素平衡分值&#xa;角质更新平衡分值&#xa;水油平衡分值&#xa;最坏的分值项&#xa;最好的分值项&#xa;create_time" style="text;strokeColor=none;fillColor=none;spacingLeft=4;spacingRight=4;overflow=hidden;rotatable=0;points=[[0,0.5],[1,0.5]];portConstraint=eastwest;fontSize=12;whiteSpace=wrap;" vertex="1" parent="lZ37NlDJfsxyfmmgvfQE-2">
          <mxGeometry y="22" width="190" height="138" as="geometry"/>
        </mxCell>
        <mxCell id="lZ37NlDJfsxyfmmgvfQE-5" value="推荐结果" style="swimlane;fontStyle=0;childLayout=stackLayout;horizontal=1;startSize=22;fillColor=none;horizontalStack=0;resizeParent=1;resizeParentMax=0;resizeLast=0;collapsible=1;marginBottom=0;swimlaneFillColor=#ffffff;align=center;fontSize=14;" vertex="1" parent="1">
          <mxGeometry x="660" y="110" width="190" height="220" as="geometry"/>
        </mxCell>
        <mxCell id="lZ37NlDJfsxyfmmgvfQE-6" value="表主键id&#xa;client_user_id&#xa;create_time&#xa;宝洁获取推荐结果接口返回的json数据&#xa;client_node_id&#xa;category_id&#xa;display_name&#xa;date_created&#xa;date_updated&#xa;total_count&#xa;count&#xa;offset" style="text;strokeColor=none;fillColor=none;spacingLeft=4;spacingRight=4;overflow=hidden;rotatable=0;points=[[0,0.5],[1,0.5]];portConstraint=eastwest;fontSize=12;whiteSpace=wrap;" vertex="1" parent="lZ37NlDJfsxyfmmgvfQE-5">
          <mxGeometry y="22" width="190" height="198" as="geometry"/>
        </mxCell>
        <mxCell id="lZ37NlDJfsxyfmmgvfQE-9" style="edgeStyle=orthogonalEdgeStyle;rounded=0;orthogonalLoop=1;jettySize=auto;html=1;exitX=1;exitY=0.5;exitDx=0;exitDy=0;entryX=0;entryY=0.423;entryDx=0;entryDy=0;entryPerimeter=0;" edge="1" parent="1" source="bo6-_9pq4a2fclOm_5sS-17" target="lZ37NlDJfsxyfmmgvfQE-3">
          <mxGeometry relative="1" as="geometry"/>
        </mxCell>
        <mxCell id="lZ37NlDJfsxyfmmgvfQE-10" style="edgeStyle=orthogonalEdgeStyle;rounded=0;orthogonalLoop=1;jettySize=auto;html=1;exitX=1;exitY=0.5;exitDx=0;exitDy=0;entryX=0.004;entryY=0.554;entryDx=0;entryDy=0;entryPerimeter=0;" edge="1" parent="1" source="bo6-_9pq4a2fclOm_5sS-17" target="bo6-_9pq4a2fclOm_5sS-21">
          <mxGeometry relative="1" as="geometry"/>
        </mxCell>
        <mxCell id="lZ37NlDJfsxyfmmgvfQE-11" style="edgeStyle=orthogonalEdgeStyle;rounded=0;orthogonalLoop=1;jettySize=auto;html=1;exitX=1;exitY=0.5;exitDx=0;exitDy=0;entryX=0;entryY=0.5;entryDx=0;entryDy=0;" edge="1" parent="1" source="lZ37NlDJfsxyfmmgvfQE-3" target="lZ37NlDJfsxyfmmgvfQE-5">
          <mxGeometry relative="1" as="geometry"/>
        </mxCell>
        <mxCell id="lZ37NlDJfsxyfmmgvfQE-12" style="edgeStyle=orthogonalEdgeStyle;rounded=0;orthogonalLoop=1;jettySize=auto;html=1;exitX=1;exitY=0.5;exitDx=0;exitDy=0;entryX=-0.015;entryY=0.44;entryDx=0;entryDy=0;entryPerimeter=0;" edge="1" parent="1" source="bo6-_9pq4a2fclOm_5sS-21" target="lZ37NlDJfsxyfmmgvfQE-6">
          <mxGeometry relative="1" as="geometry"/>
        </mxCell>
      </root>
    </mxGraphModel>
  </diagram>
</mxfile>
